0
SECTION
2
HEADER
9
$INSUNITS
70
4
9
$ACADVER
1
AC1014
9
$HANDSEED
5
FFFF
0
ENDSEC
0
SECTION
2
TABLES
0
TABLE
2
VPORT
5
8
100
AcDbSymbolTable
0
ENDTAB
0
TABLE
2
LTYPE
5
5
100
AcDbSymbolTable
0
LTYPE
5
14
100
AcDbSymbolTableRecord
100
AcDbLinetypeTableRecord
2
BYBLOCK
70
0
0
LTYPE
5
15
100
AcDbSymbolTableRecord
100
AcDbLinetypeTableRecord
2
BYLAYER
70
0
0
ENDTAB
0
TABLE
2
LAYER
5
2
100
AcDbSymbolTable
70
2
0
LAYER
5
50
100
AcDbSymbolTableRecord
100
AcDbLayerTableRecord
2
0
70
0
6
CONTINUOUS
0
ENDTAB
0
TABLE
2
STYLE
5
3
100
AcDbSymbolTable
70
1
0
STYLE
5
11
100
AcDbSymbolTableRecord
100
AcDbTextStyleTableRecord
2
STANDARD
70
0
0
ENDTAB
0
TABLE
2
VIEW
5
6
100
AcDbSymbolTable
70
0
0
ENDTAB
0
TABLE
2
UCS
5
7
100
AcDbSymbolTable
70
0
0
ENDTAB
0
TABLE
2
APPID
5
9
100
AcDbSymbolTable
70
2
0
APPID
5
12
100
AcDbSymbolTableRecord
100
AcDbRegAppTableRecord
2
ACAD
70
0
0
ENDTAB
0
TABLE
2
DIMSTYLE
5
A
100
AcDbSymbolTable
70
1
0
ENDTAB
0
TABLE
2
BLOCK_RECORD
5
1
100
AcDbSymbolTable
70
1
0
BLOCK_RECORD
5
1F
100
AcDbSymbolTableRecord
100
AcDbBlockTableRecord
2
*MODEL_SPACE
0
BLOCK_RECORD
5
1B
100
AcDbSymbolTableRecord
100
AcDbBlockTableRecord
2
*PAPER_SPACE
0
ENDTAB
0
ENDSEC
0
SECTION
2
BLOCKS
0
BLOCK
5
20
100
AcDbEntity
100
AcDbBlockBegin
2
*MODEL_SPACE
0
ENDBLK
5
21
100
AcDbEntity
100
AcDbBlockEnd
0
BLOCK
5
1C
100
AcDbEntity
100
AcDbBlockBegin
2
*PAPER_SPACE
0
ENDBLK
5
1D
100
AcDbEntity
100
AcDbBlockEnd
0
ENDSEC
0
SECTION
2
ENTITIES
0
SPLINE
5
100
100
AcDbEntity
8
0
100
AcDbSpline
70
4
71
2
72
6
73
3
74
0
42
0.000000001
43
0.0000000001
44
0.0000000001
40
0
40
0
40
0
40
9.2835092077225525
40
9.2835092077225525
40
9.2835092077225525
41
1
41
3
41
1
10
210
20
70
30
0
10
265.0100241426934
20
84.978420964764453
30
0
10
300
20
70
30
0
0
CIRCLE
5
101
100
AcDbEntity
8
0
100
AcDbCircle
10
136.00000202655792
20
40.000000596046455
30
0
40
2.0500000000000056
210
0
220
0
230
1
0
CIRCLE
5
102
100
AcDbEntity
8
0
100
AcDbCircle
10
104.00000154972076
20
8.0000001192092896
30
0
40
2.0500000000000007
210
0
220
0
230
1
0
SPLINE
5
103
100
AcDbEntity
8
0
100
AcDbSpline
70
4
71
5
72
41
73
35
74
0
42
0.000000001
43
0.0000000001
44
0.0000000001
40
0
40
0
40
0
40
0
40
0
40
0
40
0.033333333333333333
40
0.066666666666666666
40
0.10000000000000001
40
0.13333333333333333
40
0.16666666666666666
40
0.19999999999999998
40
0.23333333333333331
40
0.26666666666666666
40
0.29999999999999999
40
0.33333333333333331
40
0.36666666666666664
40
0.39999999999999997
40
0.43333333333333329
40
0.46666666666666662
40
0.49999999999999994
40
0.53333333333333333
40
0.56666666666666665
40
0.59999999999999998
40
0.6333333333333333
40
0.66666666666666663
40
0.69999999999999996
40
0.73333333333333328
40
0.76666666666666661
40
0.79999999999999993
40
0.83333333333333326
40
0.86666666666666659
40
0.89999999999999991
40
0.93333333333333324
40
0.96666666666666656
40
1
40
1
40
1
40
1
40
1
40
1
41
1
41
1
41
1
41
1
41
1
41
1
41
1
41
1
41
1
41
1
41
1
41
1
41
1
41
1
41
1
41
1
41
1
41
1
41
1
41
1
41
1
41
1
41
1
41
1
41
1
41
1
41
1
41
1
41
1
41
1
41
1
41
1
41
1
41
1
41
1
10
265.67923151624319
20
143.22935940596278
30
0
10
265.08067695195234
20
142.58617340365066
30
0
10
263.91521852319732
20
141.26132671452447
30
0
10
262.26198295074789
20
139.1586325954483
30
0
10
260.24791711728147
20
136.12377445948113
30
0
10
258.04818257928059
20
131.94778019238856
30
0
10
256.16510635430467
20
127.40270570336747
30
0
10
254.59362177698367
20
122.51854600752679
30
0
10
253.32278717685401
20
117.34850818222183
30
0
10
252.33372598616921
20
111.97556524275301
30
0
10
251.59743367035574
20
106.51971326713601
30
0
10
251.07341426068714
20
101.12042712893779
30
0
10
250.70810607925037
20
95.918245680019893
30
0
10
250.43349964834945
20
91.037471246877715
30
0
10
250.16495172300461
20
86.566575922376373
30
0
10
249.80054131803655
20
82.543270951978087
30
0
10
249.21624852041356
20
78.927156446900597
30
0
10
248.27828022928333
20
75.622916942915808
30
0
10
246.86717307387318
20
72.538262753458383
30
0
10
244.89794178309751
20
69.629346186847712
30
0
10
242.34344645490899
20
66.956089279245973
30
0
10
239.25322693052297
20
64.721025810870842
30
0
10
235.73572190327371
20
63.186687594243068
30
0
10
231.94401322438648
20
62.599480670959046
30
0
10
228.06079379998639
20
63.119631195583196
30
0
10
224.28373707431837
20
64.726870382338504
30
0
10
220.81207981701334
20
67.222595223302122
30
0
10
217.83493995352572
20
70.311341386724507
30
0
10
215.51822415464824
20
73.661380183998787
30
0
10
213.99362687794959
20
76.967459038514846
30
0
10
213.3420017682954
20
80.027188858714013
30
0
10
213.54707059528397
20
82.202412404293327
30
0
10
214.113415588664
20
83.666197759596997
30
0
10
214.67397194316794
20
84.567781747681494
30
0
10
215
20
85
30
0
0
SPLINE
5
104
100
AcDbEntity
8
0
100
AcDbSpline
70
4
71
5
72
26
73
20
74
0
42
0.000000001
43
0.0000000001
44
0.0000000001
40
0
40
0
40
0
40
0
40
0
40
0
40
0.066666666666666666
40
0.13333333333333333
40
0.20000000000000001
40
0.26666666666666666
40
0.33333333333333331
40
0.39999999999999997
40
0.46666666666666662
40
0.53333333333333333
40
0.59999999999999998
40
0.66666666666666663
40
0.73333333333333328
40
0.79999999999999993
40
0.86666666666666659
40
0.93333333333333324
40
1
40
1
40
1
40
1
40
1
40
1
41
1
41
1
41
1
41
1
41
1
41
1
41
1
41
1
41
1
41
1
41
1
41
1
41
1
41
1
41
1
41
1
41
1
41
1
41
1
41
1
10
215
20
85
30
0
10
214.41682048871849
20
84.648518400464226
30
0
10
213.29157461491229
20
83.914952953635762
30
0
10
211.72704321894668
20
82.722800341785359
30
0
10
209.88948721031483
20
80.948299395341806
30
0
10
208.01276955008004
20
78.422779239055558
30
0
10
206.55577214230945
20
75.606455038547551
30
0
10
205.50145797535251
20
72.544991542661535
30
0
10
204.80626414900911
20
69.326017602899867
30
0
10
204.38540501786665
20
66.097792183018029
30
0
10
204.10555346073477
20
63.077117872770465
30
0
10
203.81077928818539
20
60.511742704509771
30
0
10
203.34353204492874
20
58.647989784670756
30
0
10
202.5649102437616
20
57.699331715325293
30
0
10
201.38167553337308
20
57.801775287681501
30
0
10
199.75151153172237
20
59.006737746578224
30
0
10
198.07914177729586
20
60.858084142950673
30
0
10
196.61904771753979
20
62.738933923689011
30
0
10
195.55482043696188
20
64.21010119559638
30
0
10
195
20
65
30
0
0
SPLINE
5
105
100
AcDbEntity
8
0
100
AcDbSpline
70
4
71
5
72
31
73
25
74
0
42
0.000000001
43
0.0000000001
44
0.0000000001
40
0
40
0
40
0
40
0
40
0
40
0
40
0.050000000000000003
40
0.10000000000000001
40
0.15000000000000002
40
0.20000000000000001
40
0.25
40
0.29999999999999999
40
0.34999999999999998
40
0.39999999999999997
40
0.44999999999999996
40
0.49999999999999994
40
0.54999999999999993
40
0.59999999999999998
40
0.65000000000000002
40
0.70000000000000007
40
0.75000000000000011
40
0.80000000000000016
40
0.8500000000000002
40
0.90000000000000024
40
0.95000000000000029
40
1
40
1
40
1
40
1
40
1
40
1
41
1
41
1
41
1
41
1
41
1
41
1
41
1
41
1
41
1
41
1
41
1
41
1
41
1
41
1
41
1
41
1
41
1
41
1
41
1
41
1
41
1
41
1
41
1
41
1
41
1
10
195
20
65
30
0
10
194.88216442237103
20
64.353335906663688
30
0
10
194.61460006006658
20
63.083342621305704
30
0
10
194.11757590477168
20
61.248359119456417
30
0
10
193.26272368117776
20
58.942283674525378
30
0
10
191.86779344388162
20
56.296342776487734
30
0
10
190.13589406763111
20
53.887975988803547
30
0
10
188.05260701331008
20
51.714892055731092
30
0
10
185.59856816137176
20
49.767533786908103
30
0
10
182.75737622821958
20
48.033822408787998
30
0
10
179.52829716214225
20
46.508510329119616
30
0
10
175.93887370360122
20
45.201420963820041
30
0
10
172.0566701809683
20
44.145126305655999
30
0
10
168.00693490927677
20
43.405566347007735
30
0
10
163.95789123444388
20
43.07382397560896
30
0
10
160.09765195012616
20
43.252798616890274
30
0
10
156.61355801894138
20
44.044872700907199
30
0
10
153.67236602045233
20
45.539961943019371
30
0
10
151.39478527831909
20
47.799482521949614
30
0
10
149.8481810071043
20
50.852198410533916
30
0
10
149.06492319091959
20
54.706922411659271
30
0
10
149.05547738683819
20
58.429342265840191
30
0
10
149.39392045477598
20
61.576895848355434
30
0
10
149.77248400651965
20
63.832722162960273
30
0
10
150
20
65
30
0
0
SPLINE
5
106
100
AcDbEntity
8
0
100
AcDbSpline
70
4
71
5
72
41
73
35
74
0
42
0.000000001
43
0.0000000001
44
0.0000000001
40
0
40
0
40
0
40
0
40
0
40
0
40
0.033333333333333333
40
0.066666666666666666
40
0.10000000000000001
40
0.13333333333333333
40
0.16666666666666666
40
0.19999999999999998
40
0.23333333333333331
40
0.26666666666666666
40
0.29999999999999999
40
0.33333333333333331
40
0.36666666666666664
40
0.39999999999999997
40
0.43333333333333329
40
0.46666666666666662
40
0.49999999999999994
40
0.53333333333333333
40
0.56666666666666665
40
0.59999999999999998
40
0.6333333333333333
40
0.66666666666666663
40
0.69999999999999996
40
0.73333333333333328
40
0.76666666666666661
40
0.79999999999999993
40
0.83333333333333326
40
0.86666666666666659
40
0.89999999999999991
40
0.93333333333333324
40
0.96666666666666656
40
1
40
1
40
1
40
1
40
1
40
1
41
1
41
1
41
1
41
1
41
1
41
1
41
1
41
1
41
1
41
1
41
1
41
1
41
1
41
1
41
1
41
1
41
1
41
1
41
1
41
1
41
1
41
1
41
1
41
1
41
1
41
1
41
1
41
1
41
1
41
1
41
1
41
1
41
1
41
1
41
1
10
150
20
65
30
0
10
149.55629075509731
20
64.966584869663578
30
0
10
148.67213419977745
20
64.846585831843782
30
0
10
147.35568381419063
20
64.507084237496755
30
0
10
145.6200327566886
20
63.734803026584842
30
0
10
143.48147379261658
20
62.242642668972358
30
0
10
141.36870370328361
20
60.246686568355784
30
0
10
139.27058589251939
20
57.798546487723648
30
0
10
137.16943274945842
20
54.985885813015244
30
0
10
135.05151532411392
20
51.915487132437612
30
0
10
132.91562118461209
20
48.699839248486015
30
0
10
130.78376319881303
20
45.441615798958352
30
0
10
128.70810786564897
20
42.221070632508145
30
0
10
126.78732000496109
20
39.076984359283124
30
0
10
125.14375897053785
20
36.013994273286201
30
0
10
123.87940419148777
20
33.02479431796182
30
0
10
123.03468854153037
20
30.108897283572151
30
0
10
122.55328423855894
20
27.290116519165807
30
0
10
122.22489290950078
20
24.641346383778007
30
0
10
121.7106222271324
20
22.280268577421616
30
0
10
120.66029280249707
20
20.332850596215522
30
0
10
118.79603860316632
20
18.908107698814838
30
0
10
116.03093374817368
20
18.062103020941723
30
0
10
112.45402558878442
20
17.800767889344623
30
0
10
108.2678600463327
20
18.096304839974731
30
0
10
103.74169344801609
20
18.899003229179932
30
0
10
99.160397733863434
20
20.150313086578517
30
0
10
94.772072569667273
20
21.795956457711284
30
0
10
90.746507979737459
20
23.796547328522855
30
0
10
87.194720205845059
20
26.124185362576572
30
0
10
84.179943032802498
20
28.760931247865752
30
0
10
82.221168053942293
20
31.109429277545765
30
0
10
81.01033332260171
20
33.00328695510774
30
0
10
80.317682522109436
20
34.32463320351188
30
0
10
80
20
35
30
0
0
SPLINE
5
107
100
AcDbEntity
8
0
100
AcDbSpline
70
4
71
5
72
36
73
30
74
0
42
0.000000001
43
0.0000000001
44
0.0000000001
40
0
40
0
40
0
40
0
40
0
40
0
40
0.040000000000000001
40
0.080000000000000002
40
0.12
40
0.16
40
0.20000000000000001
40
0.24000000000000002
40
0.28000000000000003
40
0.32000000000000001
40
0.35999999999999999
40
0.39999999999999997
40
0.43999999999999995
40
0.47999999999999993
40
0.51999999999999991
40
0.55999999999999994
40
0.59999999999999998
40
0.64000000000000001
40
0.68000000000000005
40
0.72000000000000008
40
0.76000000000000012
40
0.80000000000000016
40
0.84000000000000019
40
0.88000000000000023
40
0.92000000000000026
40
0.9600000000000003
40
1
40
1
40
1
40
1
40
1
40
1
41
1
41
1
41
1
41
1
41
1
41
1
41
1
41
1
41
1
41
1
41
1
41
1
41
1
41
1
41
1
41
1
41
1
41
1
41
1
41
1
41
1
41
1
41
1
41
1
41
1
41
1
41
1
41
1
41
1
41
1
10
265.67923151624319
20
143.22935940596278
30
0
10
265.64905278676622
20
142.84661750349417
30
0
10
265.56753835090444
20
142.03267771210722
30
0
10
265.38179377062204
20
140.66639752097439
30
0
10
265.00687446929288
20
138.55321300768662
30
0
10
264.33005866933979
20
135.42891783053341
30
0
10
263.46062614717795
20
131.8389679519135
30
0
10
262.43183526420916
20
127.82306898641022
30
0
10
261.30329331564769
20
123.45521925082593
30
0
10
260.15437772736055
20
118.83571328188508
30
0
10
259.07379889403313
20
114.07816595472545
30
0
10
258.15079553376
20
109.29881061035195
30
0
10
257.46525875802672
20
104.60433541634274
30
0
10
257.07911901712328
20
100.0818168285048
30
0
10
257.02465173612603
20
95.783874104928529
30
0
10
257.30148103885693
20
91.728077343740324
30
0
10
257.88914773524908
20
87.921804209925341
30
0
10
258.75584238802901
20
84.38110277819348
30
0
10
259.8684120567537
20
81.15203263686243
30
0
10
261.20158106483098
20
78.330750788430819
30
0
10
262.74760516773438
20
76.085325301375107
30
0
10
264.50997359177097
20
74.616601748215231
30
0
10
266.49756843264271
20
74.122313809568084
30
0
10
268.71763151374375
20
74.752618635971615
30
0
10
271.17267626390463
20
76.593656513082053
30
0
10
273.86280147550451
20
79.689523136784004
30
0
10
276.20179941786097
20
83.180964672384832
30
0
10
278.06041827353465
20
86.369442585436929
30
0
10
279.34576195199503
20
88.747710993684848
30
0
10
280
20
90
30
0
0
SPLINE
5
108
100
AcDbEntity
8
0
100
AcDbSpline
70
4
71
5
72
21
73
15
74
0
42
0.000000001
43
0.0000000001
44
0.0000000001
40
0
40
0
40
0
40
0
40
0
40
0
40
0.10000000000000001
40
0.20000000000000001
40
0.30000000000000004
40
0.40000000000000002
40
0.5
40
0.59999999999999998
40
0.69999999999999996
40
0.79999999999999993
40
0.89999999999999991
40
1
40
1
40
1
40
1
40
1
40
1
41
1
41
1
41
1
41
1
41
1
41
1
41
1
41
1
41
1
41
1
41
1
41
1
41
1
41
1
41
1
10
210
20
50
30
0
10
209.78323329122335
20
48.878714975409309
30
0
10
209.34705861427287
20
46.734286238275409
30
0
10
208.68487303351407
20
43.812059159558309
30
0
10
207.78584924026325
20
40.514344198027089
30
0
10
206.63340296566471
20
37.45736326073569
30
0
10
205.4497484078976
20
35.559988932091578
30
0
10
204.23237021472983
20
34.915684189002
30
0
10
202.97995287621521
20
35.573329452098129
30
0
10
201.69395191932139
20
37.47884168536671
30
0
10
200.37693007696333
20
40.53699738618981
30
0
10
199.30054635396687
20
43.829447777638755
30
0
10
198.48126857943043
20
46.744297507651609
30
0
10
197.92984153132909
20
48.882302713564478
30
0
10
197.65281749605575
20
50
30
0
0
SPLINE
5
109
100
AcDbEntity
8
0
100
AcDbSpline
70
4
71
5
72
26
73
20
74
0
42
0.000000001
43
0.0000000001
44
0.0000000001
40
0
40
0
40
0
40
0
40
0
40
0
40
0.066666666666666666
40
0.13333333333333333
40
0.20000000000000001
40
0.26666666666666666
40
0.33333333333333331
40
0.39999999999999997
40
0.46666666666666662
40
0.53333333333333333
40
0.59999999999999998
40
0.66666666666666663
40
0.73333333333333328
40
0.79999999999999993
40
0.86666666666666659
40
0.93333333333333324
40
1
40
1
40
1
40
1
40
1
40
1
41
1
41
1
41
1
41
1
41
1
41
1
41
1
41
1
41
1
41
1
41
1
41
1
41
1
41
1
41
1
41
1
41
1
41
1
41
1
41
1
10
197.65281749605575
20
50
30
0
10
197.73548715941033
20
48.74529593602368
30
0
10
197.80622759746393
20
46.298124326917893
30
0
10
197.6285390110346
20
42.814075485174961
30
0
10
196.81991804926668
20
38.544816713975194
30
0
10
194.84412404344903
20
33.856225310466556
30
0
10
191.91115162837835
20
29.850379754627184
30
0
10
188.0716196061482
20
26.573878982008146
30
0
10
183.44951814891201
20
24.081712654349275
30
0
10
178.26369331258923
20
22.432684710016421
30
0
10
172.7823204891385
20
21.686417452717262
30
0
10
167.28750338547374
20
21.897444683095323
30
0
10
162.0397395090763
20
23.108164437193757
30
0
10
157.23820145471512
20
25.336597945512274
30
0
10
152.99370527137194
20
28.568540289052457
30
0
10
149.35934892477292
20
32.775694919038045
30
0
10
146.95133523740449
20
36.896443246768385
30
0
10
145.42421994792821
20
40.400749681198256
30
0
10
144.52918842144243
20
42.919504161848387
30
0
10
144.11243475827052
20
44.224519504662887
30
0
0
SPLINE
5
110
100
AcDbEntity
8
0
100
AcDbSpline
70
4
71
5
72
31
73
25
74
0
42
0.000000001
43
0.0000000001
44
0.0000000001
40
0
40
0
40
0
40
0
40
0
40
0
40
0.050000000000000003
40
0.10000000000000001
40
0.15000000000000002
40
0.20000000000000001
40
0.25
40
0.29999999999999999
40
0.34999999999999998
40
0.39999999999999997
40
0.44999999999999996
40
0.49999999999999994
40
0.54999999999999993
40
0.59999999999999998
40
0.65000000000000002
40
0.70000000000000007
40
0.75000000000000011
40
0.80000000000000016
40
0.8500000000000002
40
0.90000000000000024
40
0.95000000000000029
40
1
40
1
40
1
40
1
40
1
40
1
41
1
41
1
41
1
41
1
41
1
41
1
41
1
41
1
41
1
41
1
41
1
41
1
41
1
41
1
41
1
41
1
41
1
41
1
41
1
41
1
41
1
41
1
41
1
41
1
41
1
10
144.11243475827052
20
44.224519504662887
30
0
10
143.7716470623005
20
43.330178190648496
30
0
10
143.10536371194667
20
41.54403501563111
30
0
10
142.15181795210066
20
38.872437970084732
30
0
10
140.97252972110564
20
35.325611555878659
30
0
10
139.64313409957978
20
30.922581254704209
30
0
10
138.42755746822701
20
26.564564360057751
30
0
10
137.26149627833794
20
22.280067033935413
30
0
10
136.03202193041577
20
18.116870820010476
30
0
10
134.57140114989997
20
14.145597095325757
30
0
10
132.69881548708247
20
10.45349182760928
30
0
10
130.25778579617716
20
7.1394785412499164
30
0
10
127.15226149475305
20
4.3087222302099084
30
0
10
123.39394635784583
20
2.0669988411213893
30
0
10
119.08151226549381
20
0.51563773027406501
30
0
10
114.36143748605362
20
-0.25389071503941529
30
0
10
109.39728893373658
20
-0.16581477920553336
30
0
10
104.33484472391854
20
0.83253985630127258
30
0
10
99.273771364968553
20
2.7646488091920425
30
0
10
94.278849826139535
20
5.634693396159415
30
0
10
89.387027459467646
20
9.4348265325253848
30
0
10
85.569816052282661
20
13.208727554207794
30
0
10
82.763130984165855
20
16.446568864682064
30
0
10
80.916895703276808
20
18.785466756689441
30
0
10
80
20
20
30
0
0
LINE
5
111
100
AcDbEntity
8
0
100
AcDbLine
10
80
20
35
30
0
11
80
21
20
31
0
0
LINE
5
112
100
AcDbEntity
8
0
100
AcDbLine
10
210
20
70
30
0
11
210
21
50
31
0
0
ENDSEC
0
SECTION
2
OBJECTS
0
DICTIONARY
5
C
100
AcDbDictionary
3
ACAD_GROUP
350
D
3
ACAD_MLINESTYLE
350
17
0
DICTIONARY
5
D
100
AcDbDictionary
0
DICTIONARY
5
1A
330
C
100
AcDbDictionary
0
DICTIONARY
5
17
100
AcDbDictionary
0
ENDSEC
0
EOF
