0
SECTION
2
HEADER
9
$INSUNITS
70
4
9
$ACADVER
1
AC1014
9
$HANDSEED
5
FFFF
0
ENDSEC
0
SECTION
2
TABLES
0
TABLE
2
VPORT
5
8
100
AcDbSymbolTable
0
ENDTAB
0
TABLE
2
LTYPE
5
5
100
AcDbSymbolTable
0
LTYPE
5
14
100
AcDbSymbolTableRecord
100
AcDbLinetypeTableRecord
2
BYBLOCK
70
0
0
LTYPE
5
15
100
AcDbSymbolTableRecord
100
AcDbLinetypeTableRecord
2
BYLAYER
70
0
0
ENDTAB
0
TABLE
2
LAYER
5
2
100
AcDbSymbolTable
70
2
0
LAYER
5
50
100
AcDbSymbolTableRecord
100
AcDbLayerTableRecord
2
0
70
0
6
CONTINUOUS
0
ENDTAB
0
TABLE
2
STYLE
5
3
100
AcDbSymbolTable
70
1
0
STYLE
5
11
100
AcDbSymbolTableRecord
100
AcDbTextStyleTableRecord
2
STANDARD
70
0
0
ENDTAB
0
TABLE
2
VIEW
5
6
100
AcDbSymbolTable
70
0
0
ENDTAB
0
TABLE
2
UCS
5
7
100
AcDbSymbolTable
70
0
0
ENDTAB
0
TABLE
2
APPID
5
9
100
AcDbSymbolTable
70
2
0
APPID
5
12
100
AcDbSymbolTableRecord
100
AcDbRegAppTableRecord
2
ACAD
70
0
0
ENDTAB
0
TABLE
2
DIMSTYLE
5
A
100
AcDbSymbolTable
70
1
0
ENDTAB
0
TABLE
2
BLOCK_RECORD
5
1
100
AcDbSymbolTable
70
1
0
BLOCK_RECORD
5
1F
100
AcDbSymbolTableRecord
100
AcDbBlockTableRecord
2
*MODEL_SPACE
0
BLOCK_RECORD
5
1B
100
AcDbSymbolTableRecord
100
AcDbBlockTableRecord
2
*PAPER_SPACE
0
ENDTAB
0
ENDSEC
0
SECTION
2
BLOCKS
0
BLOCK
5
20
100
AcDbEntity
100
AcDbBlockBegin
2
*MODEL_SPACE
0
ENDBLK
5
21
100
AcDbEntity
100
AcDbBlockEnd
0
BLOCK
5
1C
100
AcDbEntity
100
AcDbBlockBegin
2
*PAPER_SPACE
0
ENDBLK
5
1D
100
AcDbEntity
100
AcDbBlockEnd
0
ENDSEC
0
SECTION
2
ENTITIES
0
LINE
5
100
100
AcDbEntity
8
0
100
AcDbLine
10
210
20
-10
30
0
11
80
21
-10
31
0
0
LINE
5
101
100
AcDbEntity
8
0
100
AcDbLine
10
80
20
-10
30
0
11
80
21
70
31
0
0
LINE
5
102
100
AcDbEntity
8
0
100
AcDbLine
10
210
20
70
30
0
11
210
21
-10
31
0
0
LINE
5
103
100
AcDbEntity
8
0
100
AcDbLine
10
300
20
70
30
0
11
300
21
215
31
0
0
LINE
5
104
100
AcDbEntity
8
0
100
AcDbLine
10
285
20
230
30
0
11
117.59606865366575
21
230
31
0
0
LINE
5
105
100
AcDbEntity
8
0
100
AcDbLine
10
110
20
230
30
0
11
100
21
230
31
0
0
LINE
5
106
100
AcDbEntity
8
0
100
AcDbLine
10
88.109903045636102
20
217.02898514069392
30
0
11
-7.3715414020073844
21
112.8674093796283
31
0
0
LINE
5
107
100
AcDbEntity
8
0
100
AcDbLine
10
-10.000000000000004
20
106.11016309445483
30
0
11
-10
21
70
31
0
0
LINE
5
108
100
AcDbEntity
8
0
100
AcDbLine
10
80
20
70
30
0
11
60
21
70
31
0
0
SPLINE
5
109
100
AcDbEntity
8
0
100
AcDbSpline
70
12
71
2
41
1
41
3
41
1
72
6
73
3
74
0
42
0.000000001
43
0.0000000001
44
0.0000000001
40
0
40
0
40
0
40
7.1606533840073467
40
7.1606533840073467
40
7.1606533840073467
10
60
20
70
30
0
10
20
20
80
30
0
10
-10
20
70
30
0
0
SPLINE
5
110
100
AcDbEntity
8
0
100
AcDbSpline
70
12
71
2
41
1
41
3
41
1
72
6
73
3
74
0
42
0.000000001
43
0.0000000001
44
0.0000000001
40
0
40
0
40
0
40
9.2835092077225525
40
9.2835092077225525
40
9.2835092077225525
10
210
20
70
30
0
10
265.0100241426934
20
84.978420964764439
30
0
10
300
20
70
30
0
0
ARC
5
111
100
AcDbEntity
8
0
100
AcDbCircle
10
117.59606865366543
20
190.0000000000006
30
0
40
39.999999999999396
210
0
220
-0
230
1
100
AcDbArc
50
89.999999999999531
51
137.4895529219994
0
ARC
5
112
100
AcDbEntity
8
0
100
AcDbCircle
10
1.5432100042289676e-13
20
106.11016309445473
30
0
40
10.000000000000158
210
0
220
0
230
1
100
AcDbArc
50
137.48955292199921
51
180
0
ARC
5
113
100
AcDbEntity
8
0
100
AcDbCircle
10
285.00000000000006
20
215.00000000000003
30
0
40
14.999999999999964
210
-0
220
0
230
1
100
AcDbArc
50
0
51
90.000000000000213
0
CIRCLE
5
114
100
AcDbEntity
8
0
100
AcDbCircle
10
248.00000369548798
20
160.00000238418579
30
0
40
1.2499999999999838
210
0
220
0
230
1
0
CIRCLE
5
115
100
AcDbEntity
8
0
100
AcDbCircle
10
104.00000154972076
20
40.000000596046448
30
0
40
1.25
210
0
220
0
230
1
0
CIRCLE
5
116
100
AcDbEntity
8
0
100
AcDbCircle
10
136.00000202655792
20
40.000000596046448
30
0
40
1.25
210
0
220
0
230
1
0
CIRCLE
5
117
100
AcDbEntity
8
0
100
AcDbCircle
10
136.00000202655792
20
8.0000001192092896
30
0
40
1.2500000000000053
210
0
220
0
230
1
0
CIRCLE
5
118
100
AcDbEntity
8
0
100
AcDbCircle
10
104.00000154972076
20
8.0000001192092896
30
0
40
1.2500000000000053
210
0
220
0
230
1
0
CIRCLE
5
119
100
AcDbEntity
8
0
100
AcDbCircle
10
280.00000417232513
20
160.00000238418579
30
0
40
1.25000000000001
210
0
220
0
230
1
0
CIRCLE
5
120
100
AcDbEntity
8
0
100
AcDbCircle
10
280.00000417232513
20
128.00000190734863
30
0
40
1.25
210
0
220
0
230
1
0
CIRCLE
5
121
100
AcDbEntity
8
0
100
AcDbCircle
10
248.00000369548798
20
128.00000190734863
30
0
40
1.25
210
0
220
0
230
1
0
CIRCLE
5
122
100
AcDbEntity
8
0
100
AcDbCircle
10
248.00000369548798
20
160.00000238418579
30
0
40
1.25
210
0
220
-0
230
1
0
ENDSEC
0
SECTION
2
OBJECTS
0
DICTIONARY
5
C
100
AcDbDictionary
3
ACAD_GROUP
350
D
3
ACAD_MLINESTYLE
350
17
0
DICTIONARY
5
D
100
AcDbDictionary
0
DICTIONARY
5
1A
330
C
100
AcDbDictionary
0
DICTIONARY
5
17
100
AcDbDictionary
0
ENDSEC
0
EOF
