0
SECTION
2
HEADER
9
$INSUNITS
70
4
9
$ACADVER
1
AC1014
9
$HANDSEED
5
FFFF
0
ENDSEC
0
SECTION
2
TABLES
0
TABLE
2
VPORT
5
8
100
AcDbSymbolTable
0
ENDTAB
0
TABLE
2
LTYPE
5
5
100
AcDbSymbolTable
0
LTYPE
5
14
100
AcDbSymbolTableRecord
100
AcDbLinetypeTableRecord
2
BYBLOCK
70
0
0
LTYPE
5
15
100
AcDbSymbolTableRecord
100
AcDbLinetypeTableRecord
2
BYLAYER
70
0
0
ENDTAB
0
TABLE
2
LAYER
5
2
100
AcDbSymbolTable
70
2
0
LAYER
5
50
100
AcDbSymbolTableRecord
100
AcDbLayerTableRecord
2
0
70
0
6
CONTINUOUS
0
ENDTAB
0
TABLE
2
STYLE
5
3
100
AcDbSymbolTable
70
1
0
STYLE
5
11
100
AcDbSymbolTableRecord
100
AcDbTextStyleTableRecord
2
STANDARD
70
0
0
ENDTAB
0
TABLE
2
VIEW
5
6
100
AcDbSymbolTable
70
0
0
ENDTAB
0
TABLE
2
UCS
5
7
100
AcDbSymbolTable
70
0
0
ENDTAB
0
TABLE
2
APPID
5
9
100
AcDbSymbolTable
70
2
0
APPID
5
12
100
AcDbSymbolTableRecord
100
AcDbRegAppTableRecord
2
ACAD
70
0
0
ENDTAB
0
TABLE
2
DIMSTYLE
5
A
100
AcDbSymbolTable
70
1
0
ENDTAB
0
TABLE
2
BLOCK_RECORD
5
1
100
AcDbSymbolTable
70
1
0
BLOCK_RECORD
5
1F
100
AcDbSymbolTableRecord
100
AcDbBlockTableRecord
2
*MODEL_SPACE
0
BLOCK_RECORD
5
1B
100
AcDbSymbolTableRecord
100
AcDbBlockTableRecord
2
*PAPER_SPACE
0
ENDTAB
0
ENDSEC
0
SECTION
2
BLOCKS
0
BLOCK
5
20
100
AcDbEntity
100
AcDbBlockBegin
2
*MODEL_SPACE
0
ENDBLK
5
21
100
AcDbEntity
100
AcDbBlockEnd
0
BLOCK
5
1C
100
AcDbEntity
100
AcDbBlockBegin
2
*PAPER_SPACE
0
ENDBLK
5
1D
100
AcDbEntity
100
AcDbBlockEnd
0
ENDSEC
0
SECTION
2
ENTITIES
0
SPLINE
5
100
100
AcDbEntity
8
0
100
AcDbSpline
70
4
71
2
72
6
73
3
74
0
42
0.000000001
43
0.0000000001
44
0.0000000001
40
0
40
0
40
0
40
9.2835092077225525
40
9.2835092077225525
40
9.2835092077225525
41
1
41
3
41
1
10
210
20
70
30
0
10
265.0100241426934
20
84.978420964764453
30
0
10
300
20
70
30
0
0
CIRCLE
5
101
100
AcDbEntity
8
0
100
AcDbCircle
10
280.00000417232519
20
128.00000190734863
30
0
40
2.0499999999999883
210
0
220
0
230
1
0
CIRCLE
5
102
100
AcDbEntity
8
0
100
AcDbCircle
10
248.000003695488
20
128.00000190734863
30
0
40
2.0499999999999985
210
0
220
0
230
1
0
SPLINE
5
103
100
AcDbEntity
8
0
100
AcDbSpline
70
4
71
5
72
26
73
20
74
0
42
0.000000001
43
0.0000000001
44
0.0000000001
40
0
40
0
40
0
40
0
40
0
40
0
40
0.066666666666666666
40
0.13333333333333333
40
0.20000000000000001
40
0.26666666666666666
40
0.33333333333333331
40
0.39999999999999997
40
0.46666666666666662
40
0.53333333333333333
40
0.59999999999999998
40
0.66666666666666663
40
0.73333333333333328
40
0.79999999999999993
40
0.86666666666666659
40
0.93333333333333324
40
1
40
1
40
1
40
1
40
1
40
1
41
1
41
1
41
1
41
1
41
1
41
1
41
1
41
1
41
1
41
1
41
1
41
1
41
1
41
1
41
1
41
1
41
1
41
1
41
1
41
1
10
282.82416068577226
20
76.919103548380747
30
0
10
282.9485437974522
20
77.663562896105972
30
0
10
283.22597579496465
20
79.133587634569935
30
0
10
283.72812529601811
20
81.281941143968766
30
0
10
284.57087580476082
20
84.032235888099507
30
0
10
285.90864001019008
20
87.27958958048157
30
0
10
287.50344877384225
20
90.344874486488209
30
0
10
289.29060920638705
20
93.251756480905144
30
0
10
291.14707444755248
20
96.048655767864432
30
0
10
292.88357337946354
20
98.81268238274437
30
0
10
294.28320589998572
20
101.63323248998978
30
0
10
295.13256756537112
20
104.59914235969242
30
0
10
295.2548728061422
20
107.78509930154436
30
0
10
294.54930740902142
20
111.23587511589299
30
0
10
292.97306024726447
20
114.97294096959044
30
0
10
290.51927235290327
20
119.00280541915123
30
0
10
287.86430063139511
20
122.45919285081897
30
0
10
285.49153057598983
20
125.17998681116062
30
0
10
283.7413413597269
20
127.05054715352301
30
0
10
282.82416068577226
20
128.00000190734863
30
0
0
SPLINE
5
104
100
AcDbEntity
8
0
100
AcDbSpline
70
4
71
5
72
56
73
50
74
0
42
0.000000001
43
0.0000000001
44
0.0000000001
40
0
40
0
40
0
40
0
40
0
40
0
40
0.022222222222222223
40
0.044444444444444446
40
0.066666666666666666
40
0.088888888888888892
40
0.11111111111111112
40
0.13333333333333333
40
0.15555555555555556
40
0.17777777777777778
40
0.20000000000000001
40
0.22222222222222224
40
0.24444444444444446
40
0.26666666666666666
40
0.28888888888888886
40
0.31111111111111106
40
0.33333333333333326
40
0.35555555555555546
40
0.37777777777777766
40
0.39999999999999986
40
0.42222222222222205
40
0.44444444444444425
40
0.46666666666666645
40
0.48888888888888865
40
0.51111111111111085
40
0.5333333333333331
40
0.55555555555555536
40
0.57777777777777761
40
0.59999999999999987
40
0.62222222222222212
40
0.64444444444444438
40
0.66666666666666663
40
0.68888888888888888
40
0.71111111111111114
40
0.73333333333333339
40
0.75555555555555565
40
0.7777777777777779
40
0.80000000000000016
40
0.82222222222222241
40
0.84444444444444466
40
0.86666666666666692
40
0.88888888888888917
40
0.91111111111111143
40
0.93333333333333368
40
0.95555555555555594
40
0.97777777777777819
40
1
40
1
40
1
40
1
40
1
40
1
41
1
41
1
41
1
41
1
41
1
41
1
41
1
41
1
41
1
41
1
41
1
41
1
41
1
41
1
41
1
41
1
41
1
41
1
41
1
41
1
41
1
41
1
41
1
41
1
41
1
41
1
41
1
41
1
41
1
41
1
41
1
41
1
41
1
41
1
41
1
41
1
41
1
41
1
41
1
41
1
41
1
41
1
41
1
41
1
41
1
41
1
41
1
41
1
41
1
41
1
10
282.82416068577226
20
128.00000190734863
30
0
10
283.05115210782458
20
127.54939802504062
30
0
10
283.48226376841984
20
126.64163153871789
30
0
10
284.06031915242522
20
125.26030775282807
30
0
10
284.69371258862839
20
123.3791446551449
30
0
10
285.25453068883911
20
120.96283359332845
30
0
10
285.57926357236119
20
118.48406411602836
30
0
10
285.65882938825916
20
115.9484830841626
30
0
10
285.47788726480331
20
113.3643624009859
30
0
10
285.01803390432195
20
110.74995724203113
30
0
10
284.26660105912214
20
108.14815654486753
30
0
10
283.22453434909437
20
105.64115749013715
30
0
10
281.91351131307368
20
103.3611220970466
30
0
10
280.38647650565093
20
101.51320249477735
30
0
10
278.7185820914903
20
100.32997028908889
30
0
10
276.9909000461484
20
100.00052964107232
30
0
10
275.27661542792538
20
100.60823378308383
30
0
10
273.62597979271339
20
102.06333545015858
30
0
10
272.07444940418674
20
104.16781078984067
30
0
10
270.6513476053907
20
106.683386158358
30
0
10
269.38746770610533
20
109.39365055463463
30
0
10
268.32524931033146
20
112.18015060775647
30
0
10
267.51266058042836
20
115.01021070586015
30
0
10
266.99302081624148
20
117.90203003384474
30
0
10
266.79568100020327
20
120.89653971256655
30
0
10
266.92741191149838
20
124.029028161369
30
0
10
267.36068253709482
20
127.29478753755242
30
0
10
268.03309978603778
20
130.63942482476637
30
0
10
268.86239525438646
20
133.98400940830601
30
0
10
269.75720571023464
20
137.24100614053259
30
0
10
270.63010172771055
20
140.3348914196572
30
0
10
271.40828170180617
20
143.21849483758055
30
0
10
272.04868022524653
20
145.89691437325237
30
0
10
272.53822913033343
20
148.42649344619883
30
0
10
272.87886438243652
20
150.88828136774507
30
0
10
273.0761625100879
20
153.36754433758426
30
0
10
273.12759062635047
20
155.93265376859702
30
0
10
273.00821482663304
20
158.60962459450732
30
0
10
272.6733292029312
20
161.38539615407632
30
0
10
272.0675634013179
20
164.22214348610495
30
0
10
271.13209237740284
20
167.06823266552379
30
0
10
269.81204532365194
20
169.86971387329544
30
0
10
268.06531847683266
20
172.58357755872521
30
0
10
265.86354507855555
20
175.18028454428793
30
0
10
263.18866375374802
20
177.64021054552697
30
0
10
260.03091124058307
20
179.95202788798213
30
0
10
257.11520114481118
20
181.67865955148079
30
0
10
254.70907927577889
20
182.90385451565601
30
0
10
253.0075915695821
20
183.68966233937883
30
0
10
252.13249613986699
20
184.07481910140024
30
0
0
SPLINE
5
105
100
AcDbEntity
8
0
100
AcDbSpline
70
4
71
5
72
76
73
70
74
0
42
0.000000001
43
0.0000000001
44
0.0000000001
40
0
40
0
40
0
40
0
40
0
40
0
40
0.015384615384615385
40
0.030769230769230771
40
0.046153846153846156
40
0.061538461538461542
40
0.076923076923076927
40
0.092307692307692313
40
0.1076923076923077
40
0.12307692307692308
40
0.13846153846153847
40
0.15384615384615385
40
0.16923076923076924
40
0.18461538461538463
40
0.20000000000000001
40
0.2153846153846154
40
0.23076923076923078
40
0.24615384615384617
40
0.26153846153846155
40
0.27692307692307694
40
0.29230769230769232
40
0.30769230769230771
40
0.32307692307692309
40
0.33846153846153848
40
0.35384615384615387
40
0.36923076923076925
40
0.38461538461538464
40
0.40000000000000002
40
0.41538461538461541
40
0.43076923076923079
40
0.44615384615384618
40
0.46153846153846156
40
0.47692307692307695
40
0.49230769230769234
40
0.50769230769230766
40
0.52307692307692299
40
0.53846153846153832
40
0.55384615384615365
40
0.56923076923076898
40
0.58461538461538431
40
0.59999999999999964
40
0.61538461538461497
40
0.6307692307692303
40
0.64615384615384563
40
0.66153846153846096
40
0.67692307692307629
40
0.69230769230769162
40
0.70769230769230695
40
0.72307692307692228
40
0.73846153846153761
40
0.75384615384615294
40
0.76923076923076827
40
0.7846153846153836
40
0.79999999999999893
40
0.81538461538461426
40
0.83076923076922959
40
0.84615384615384492
40
0.86153846153846025
40
0.87692307692307558
40
0.89230769230769091
40
0.90769230769230624
40
0.92307692307692157
40
0.9384615384615369
40
0.95384615384615223
40
0.96923076923076756
40
0.98461538461538289
40
1
40
1
40
1
40
1
40
1
40
1
41
1
41
1
41
1
41
1
41
1
41
1
41
1
41
1
41
1
41
1
41
1
41
1
41
1
41
1
41
1
41
1
41
1
41
1
41
1
41
1
41
1
41
1
41
1
41
1
41
1
41
1
41
1
41
1
41
1
41
1
41
1
41
1
41
1
41
1
41
1
41
1
41
1
41
1
41
1
41
1
41
1
41
1
41
1
41
1
41
1
41
1
41
1
41
1
41
1
41
1
41
1
41
1
41
1
41
1
41
1
41
1
41
1
41
1
41
1
41
1
41
1
41
1
41
1
41
1
41
1
41
1
41
1
41
1
41
1
41
1
10
252.13249613986693
20
184.07481910140021
30
0
10
252.55524286030038
20
183.74426609748807
30
0
10
253.38773737730034
20
183.05278511596083
30
0
10
254.59748339948283
20
181.92443771926315
30
0
10
256.132447725421
20
180.23766112677751
30
0
10
257.91609608832579
20
177.830233740403
30
0
10
259.54979952943017
20
175.13941943810849
30
0
10
261.00428187379771
20
172.19662109730851
30
0
10
262.23027932330302
20
169.05532084382492
30
0
10
263.15596789697958
20
165.79434360049532
30
0
10
263.70434056206318
20
162.50145274008358
30
0
10
263.8081538342405
20
159.25933766564037
30
0
10
263.42631269647785
20
156.13022102730261
30
0
10
262.55855347151464
20
153.14208232919293
30
0
10
261.26390852191071
20
150.27134654540299
30
0
10
259.64546830294137
20
147.45703910189786
30
0
10
257.83064479786037
20
144.61911459011571
30
0
10
255.95242146535094
20
141.67593704553457
30
0
10
254.13166467904855
20
138.56062251511926
30
0
10
252.45539914076994
20
135.24152483662147
30
0
10
250.97038727124539
20
131.72711762570324
30
0
10
249.69436026488881
20
128.05289307636696
30
0
10
248.62249973934638
20
124.27309740120762
30
0
10
247.73598560643035
20
120.45035135063897
30
0
10
247.00923010470174
20
116.64661359694497
30
0
10
246.41862127722973
20
112.91256841355219
30
0
10
245.94760273103074
20
109.28080276365328
30
0
10
245.57989787173443
20
105.77096955356831
30
0
10
245.2949049669904
20
102.39300832680055
30
0
10
245.06177856617131
20
99.151008141617723
30
0
10
244.83510227809202
20
96.047018763979366
30
0
10
244.54726817723275
20
93.084298172201159
30
0
10
244.11266598671381
20
90.27309390742758
30
0
10
243.44285077731632
20
87.638653836288938
30
0
10
242.45872667688545
20
85.22898747011601
30
0
10
241.1038629125454
20
83.121988006568387
30
0
10
239.35764257142043
20
81.434923554869101
30
0
10
237.24149026035192
20
80.295253706172232
30
0
10
234.82392163178477
20
79.809491672579782
30
0
10
232.22729926911501
20
80.031130747109557
30
0
10
229.63066944380131
20
80.933364369634944
30
0
10
227.23274994969364
20
82.43873109413866
30
0
10
225.21642337155009
20
84.445436089492546
30
0
10
223.71543239760456
20
86.853046073235092
30
0
10
222.77297752233179
20
89.593115270261094
30
0
10
222.35817080772702
20
92.621807312245195
30
0
10
222.39588768990004
20
95.903649379653643
30
0
10
222.79286776188812
20
99.397624587216228
30
0
10
223.46327305203133
20
103.04389735280157
30
0
10
224.35982447097024
20
106.74605317039686
30
0
10
225.46426653026816
20
110.38522810760938
30
0
10
226.76641357798744
20
113.84319579917045
30
0
10
228.24728151702968
20
117.0221976749649
30
0
10
229.86006113101993
20
119.86664191550602
30
0
10
231.51301076606507
20
122.3829352689514
30
0
10
233.04862188257343
20
124.66330301217516
30
0
10
234.27925266853447
20
126.84873553760562
30
0
10
235.02941125628044
20
129.08501663571022
30
0
10
235.17140007660987
20
131.48537328136376
30
0
10
234.67420661383628
20
134.08027288835387
30
0
10
233.5969072538503
20
136.82085680921082
30
0
10
232.05065039428354
20
139.61273556826012
30
0
10
230.16999846005933
20
142.34072207637337
30
0
10
228.0812296064384
20
144.89659118078356
30
0
10
225.86986529520121
20
147.20735850430492
30
0
10
223.5867788219596
20
149.22994855647889
30
0
10
221.72342912684832
20
150.60036183455213
30
0
10
220.30899794322801
20
151.48579070052389
30
0
10
219.35853058309192
20
152.01281751654687
30
0
10
218.88141839785254
20
152.26051632354694
30
0
0
SPLINE
5
106
100
AcDbEntity
8
0
100
AcDbSpline
70
4
71
5
72
46
73
40
74
0
42
0.000000001
43
0.0000000001
44
0.0000000001
40
0
40
0
40
0
40
0
40
0
40
0
40
0.028571428571428571
40
0.057142857142857141
40
0.085714285714285715
40
0.11428571428571428
40
0.14285714285714285
40
0.17142857142857143
40
0.20000000000000001
40
0.22857142857142859
40
0.25714285714285717
40
0.28571428571428575
40
0.31428571428571433
40
0.34285714285714292
40
0.3714285714285715
40
0.40000000000000008
40
0.42857142857142866
40
0.45714285714285724
40
0.48571428571428582
40
0.51428571428571435
40
0.54285714285714293
40
0.57142857142857151
40
0.60000000000000009
40
0.62857142857142867
40
0.65714285714285725
40
0.68571428571428583
40
0.71428571428571441
40
0.74285714285714299
40
0.77142857142857157
40
0.80000000000000016
40
0.82857142857142874
40
0.85714285714285732
40
0.8857142857142859
40
0.91428571428571448
40
0.94285714285714306
40
0.97142857142857164
40
1
40
1
40
1
40
1
40
1
40
1
41
1
41
1
41
1
41
1
41
1
41
1
41
1
41
1
41
1
41
1
41
1
41
1
41
1
41
1
41
1
41
1
41
1
41
1
41
1
41
1
41
1
41
1
41
1
41
1
41
1
41
1
41
1
41
1
41
1
41
1
41
1
41
1
41
1
41
1
41
1
41
1
41
1
41
1
41
1
41
1
10
218.88141839785254
20
152.26051632354694
30
0
10
219.53017191330179
20
151.66195891338438
30
0
10
220.75692447995976
20
150.46937116475138
30
0
10
222.38479099283529
20
148.69407060988047
30
0
10
224.13018122633585
20
146.35420274672359
30
0
10
225.60547435104968
20
143.47407262266023
30
0
10
226.38603858327397
20
140.63641888356938
30
0
10
226.49999944505601
20
137.83645613648557
30
0
10
225.99770692303304
20
135.06602199146198
30
0
10
224.96033336483077
20
132.31236386545481
30
0
10
223.49440288832949
20
129.55895422595967
30
0
10
221.72132559918825
20
126.78706194566379
30
0
10
219.76856098591583
20
123.97702663650087
30
0
10
217.76052149604084
20
121.10973022391541
30
0
10
215.80879261269519
20
118.16779222471637
30
0
10
214.00610233965583
20
115.13773977775671
30
0
10
212.42326750883464
20
112.0129311241667
30
0
10
211.10524861087484
20
108.79629846615657
30
0
10
210.06719737392845
20
105.50323683919315
30
0
10
209.29081112811204
20
102.1644794662422
30
0
10
208.71901980626484
20
98.829157453762662
30
0
10
208.26486744414834
20
95.566279496564903
30
0
10
207.8229424398852
20
92.465363121119452
30
0
10
207.27915808607247
20
89.638688586068739
30
0
10
206.52256565204695
20
87.220219239708555
30
0
10
205.45281483880456
20
85.372932673569949
30
0
10
204.00509347494739
20
84.260261852388666
30
0
10
202.17897711408216
20
84.003906371916642
30
0
10
200.07599405317393
20
84.635684780773545
30
0
10
197.90166023982169
20
86.084937464529474
30
0
10
195.90888017419206
20
88.22643783965745
30
0
10
194.35854649054991
20
90.911225308525232
30
0
10
193.46680332956171
20
94.008830478635531
30
0
10
193.37970243376046
20
97.428535304806474
30
0
10
194.19222967174224
20
101.10830092417514
30
0
10
195.95735378846604
20
105.01076176051727
30
0
10
198.15044882891894
20
108.29535556875504
30
0
10
200.23689790708161
20
110.84716040180592
30
0
10
201.82388677913096
20
112.58757897238198
30
0
10
202.66638665946286
20
113.46759229119684
30
0
0
SPLINE
5
107
100
AcDbEntity
8
0
100
AcDbSpline
70
4
71
5
72
46
73
40
74
0
42
0.000000001
43
0.0000000001
44
0.0000000001
40
0
40
0
40
0
40
0
40
0
40
0
40
0.028571428571428571
40
0.057142857142857141
40
0.085714285714285715
40
0.11428571428571428
40
0.14285714285714285
40
0.17142857142857143
40
0.20000000000000001
40
0.22857142857142859
40
0.25714285714285717
40
0.28571428571428575
40
0.31428571428571433
40
0.34285714285714292
40
0.3714285714285715
40
0.40000000000000008
40
0.42857142857142866
40
0.45714285714285724
40
0.48571428571428582
40
0.51428571428571435
40
0.54285714285714293
40
0.57142857142857151
40
0.60000000000000009
40
0.62857142857142867
40
0.65714285714285725
40
0.68571428571428583
40
0.71428571428571441
40
0.74285714285714299
40
0.77142857142857157
40
0.80000000000000016
40
0.82857142857142874
40
0.85714285714285732
40
0.8857142857142859
40
0.91428571428571448
40
0.94285714285714306
40
0.97142857142857164
40
1
40
1
40
1
40
1
40
1
40
1
41
1
41
1
41
1
41
1
41
1
41
1
41
1
41
1
41
1
41
1
41
1
41
1
41
1
41
1
41
1
41
1
41
1
41
1
41
1
41
1
41
1
41
1
41
1
41
1
41
1
41
1
41
1
41
1
41
1
41
1
41
1
41
1
41
1
41
1
41
1
41
1
41
1
41
1
41
1
41
1
10
202.66638665946286
20
113.46759229119684
30
0
10
202.06422094498365
20
113.48935593167853
30
0
10
200.88511513483053
20
113.47232693748347
30
0
10
199.19213275923147
20
113.26511308569339
30
0
10
197.08638135341317
20
112.62501728392364
30
0
10
194.70858476373098
20
111.2211053063931
30
0
10
192.58861813159405
20
109.22623174355732
30
0
10
190.73167075706604
20
106.66938759854547
30
0
10
189.14535209929363
20
103.60352288082167
30
0
10
187.83684708022724
20
100.10249315720657
30
0
10
186.80904742806902
20
96.254977195625671
30
0
10
186.05696940142749
20
92.159545853854866
30
0
10
185.56400061211465
20
87.919364628416645
30
0
10
185.29807933175255
20
83.637103914403482
30
0
10
185.20792333804806
20
79.409834951274746
30
0
10
185.22549000006947
20
75.326006775725887
30
0
10
185.26826560887713
20
71.462370655634132
30
0
10
185.24141383071563
20
67.880759241383032
30
0
10
185.04014977047066
20
64.625035357563135
30
0
10
184.55138061792809
20
61.717340763413475
30
0
10
183.65728445641608
20
59.155918142759973
30
0
10
182.25859607052428
20
56.930057813560666
30
0
10
180.29696555566161
20
55.033953233900135
30
0
10
177.7770034359387
20
53.480387653810254
30
0
10
174.79126097824525
20
52.315998758457461
30
0
10
171.49563154086567
20
51.606213391627819
30
0
10
168.08134558714087
20
51.417876687827324
30
0
10
164.74885910769046
20
51.803094255711159
30
0
10
161.68016852383442
20
52.781541145142157
30
0
10
159.01429126125817
20
54.325782945396917
30
0
10
156.85517269378946
20
56.378138286931318
30
0
10
155.27711590227486
20
58.865602914252918
30
0
10
154.33080482157797
20
61.714241254607678
30
0
10
154.04916266454677
20
64.866430144455308
30
0
10
154.45169024667598
20
68.284086037811676
30
0
10
155.54768116943868
20
71.943280624965425
30
0
10
156.98126180164496
20
75.05388449956159
30
0
10
158.3691756331433
20
77.487748559119808
30
0
10
159.43325754916313
20
79.155117488275494
30
0
10
160
20
80
30
0
0
SPLINE
5
108
100
AcDbEntity
8
0
100
AcDbSpline
70
4
71
5
72
31
73
25
74
0
42
0.000000001
43
0.0000000001
44
0.0000000001
40
0
40
0
40
0
40
0
40
0
40
0
40
0.050000000000000003
40
0.10000000000000001
40
0.15000000000000002
40
0.20000000000000001
40
0.25
40
0.29999999999999999
40
0.34999999999999998
40
0.39999999999999997
40
0.44999999999999996
40
0.49999999999999994
40
0.54999999999999993
40
0.59999999999999998
40
0.65000000000000002
40
0.70000000000000007
40
0.75000000000000011
40
0.80000000000000016
40
0.8500000000000002
40
0.90000000000000024
40
0.95000000000000029
40
1
40
1
40
1
40
1
40
1
40
1
41
1
41
1
41
1
41
1
41
1
41
1
41
1
41
1
41
1
41
1
41
1
41
1
41
1
41
1
41
1
41
1
41
1
41
1
41
1
41
1
41
1
41
1
41
1
41
1
41
1
10
160
20
80
30
0
10
158.83698458743066
20
79.954263160494094
30
0
10
156.55193118837545
20
79.76065873555504
30
0
10
153.24728159506637
20
79.163865061231149
30
0
10
149.08796188411191
20
77.752820050686637
30
0
10
144.30100704948717
20
74.966561283523049
30
0
10
139.91829163201774
20
71.19230095614752
30
0
10
135.91516107180584
20
66.521129699697966
30
0
10
132.24333294323134
20
61.122688059170692
30
0
10
128.81936085253898
20
55.28081134272459
30
0
10
125.53514901548404
20
49.362885296744743
30
0
10
122.27579331044835
20
43.767124129385593
30
0
10
118.93444942296702
20
38.87856235496676
30
0
10
115.42888174214431
20
35.019976517655984
30
0
10
111.71665321811827
20
32.406309913369121
30
0
10
107.81442666304976
20
31.08740548323858
30
0
10
103.77865565773867
20
30.995401470594359
30
0
10
99.682870765956494
20
32.000780643977194
30
0
10
95.596424293729797
20
33.963352960768695
30
0
10
91.563538278240117
20
36.782060045738582
30
0
10
87.60961696008799
20
40.388229102776343
30
0
10
84.518968877182886
20
43.870147788243258
30
0
10
82.243152728283476
20
46.808468750222467
30
0
10
80.744606734714353
20
48.912041017388304
30
0
10
80
20
50
30
0
0
SPLINE
5
109
100
AcDbEntity
8
0
100
AcDbSpline
70
4
71
5
72
41
73
35
74
0
42
0.000000001
43
0.0000000001
44
0.0000000001
40
0
40
0
40
0
40
0
40
0
40
0
40
0.033333333333333333
40
0.066666666666666666
40
0.10000000000000001
40
0.13333333333333333
40
0.16666666666666666
40
0.19999999999999998
40
0.23333333333333331
40
0.26666666666666666
40
0.29999999999999999
40
0.33333333333333331
40
0.36666666666666664
40
0.39999999999999997
40
0.43333333333333329
40
0.46666666666666662
40
0.49999999999999994
40
0.53333333333333333
40
0.56666666666666665
40
0.59999999999999998
40
0.6333333333333333
40
0.66666666666666663
40
0.69999999999999996
40
0.73333333333333328
40
0.76666666666666661
40
0.79999999999999993
40
0.83333333333333326
40
0.86666666666666659
40
0.89999999999999991
40
0.93333333333333324
40
0.96666666666666656
40
1
40
1
40
1
40
1
40
1
40
1
41
1
41
1
41
1
41
1
41
1
41
1
41
1
41
1
41
1
41
1
41
1
41
1
41
1
41
1
41
1
41
1
41
1
41
1
41
1
41
1
41
1
41
1
41
1
41
1
41
1
41
1
41
1
41
1
41
1
41
1
41
1
41
1
41
1
41
1
41
1
10
265.67923151624319
20
143.22935940596278
30
0
10
265.08067695195234
20
142.58617340365066
30
0
10
263.91521852319732
20
141.26132671452447
30
0
10
262.26198295074789
20
139.1586325954483
30
0
10
260.24791711728147
20
136.12377445948113
30
0
10
258.04818257928059
20
131.94778019238856
30
0
10
256.16510635430467
20
127.40270570336747
30
0
10
254.59362177698367
20
122.51854600752679
30
0
10
253.32278717685401
20
117.34850818222183
30
0
10
252.33372598616921
20
111.97556524275301
30
0
10
251.59743367035574
20
106.51971326713601
30
0
10
251.07341426068714
20
101.12042712893779
30
0
10
250.70810607925037
20
95.918245680019893
30
0
10
250.43349964834945
20
91.037471246877715
30
0
10
250.16495172300461
20
86.566575922376373
30
0
10
249.80054131803655
20
82.543270951978087
30
0
10
249.21624852041356
20
78.927156446900597
30
0
10
248.27828022928333
20
75.622916942915808
30
0
10
246.86717307387318
20
72.538262753458383
30
0
10
244.89794178309751
20
69.629346186847712
30
0
10
242.34344645490899
20
66.956089279245973
30
0
10
239.25322693052297
20
64.721025810870842
30
0
10
235.73572190327371
20
63.186687594243068
30
0
10
231.94401322438648
20
62.599480670959046
30
0
10
228.06079379998639
20
63.119631195583196
30
0
10
224.28373707431837
20
64.726870382338504
30
0
10
220.81207981701334
20
67.222595223302122
30
0
10
217.83493995352572
20
70.311341386724507
30
0
10
215.51822415464824
20
73.661380183998787
30
0
10
213.99362687794959
20
76.967459038514846
30
0
10
213.3420017682954
20
80.027188858714013
30
0
10
213.54707059528397
20
82.202412404293327
30
0
10
214.113415588664
20
83.666197759596997
30
0
10
214.67397194316794
20
84.567781747681494
30
0
10
215
20
85
30
0
0
SPLINE
5
110
100
AcDbEntity
8
0
100
AcDbSpline
70
4
71
5
72
26
73
20
74
0
42
0.000000001
43
0.0000000001
44
0.0000000001
40
0
40
0
40
0
40
0
40
0
40
0
40
0.066666666666666666
40
0.13333333333333333
40
0.20000000000000001
40
0.26666666666666666
40
0.33333333333333331
40
0.39999999999999997
40
0.46666666666666662
40
0.53333333333333333
40
0.59999999999999998
40
0.66666666666666663
40
0.73333333333333328
40
0.79999999999999993
40
0.86666666666666659
40
0.93333333333333324
40
1
40
1
40
1
40
1
40
1
40
1
41
1
41
1
41
1
41
1
41
1
41
1
41
1
41
1
41
1
41
1
41
1
41
1
41
1
41
1
41
1
41
1
41
1
41
1
41
1
41
1
10
215
20
85
30
0
10
214.41682048871849
20
84.648518400464226
30
0
10
213.29157461491229
20
83.914952953635762
30
0
10
211.72704321894668
20
82.722800341785359
30
0
10
209.88948721031483
20
80.948299395341806
30
0
10
208.01276955008004
20
78.422779239055558
30
0
10
206.55577214230945
20
75.606455038547551
30
0
10
205.50145797535251
20
72.544991542661535
30
0
10
204.80626414900911
20
69.326017602899867
30
0
10
204.38540501786665
20
66.097792183018029
30
0
10
204.10555346073477
20
63.077117872770465
30
0
10
203.81077928818539
20
60.511742704509771
30
0
10
203.34353204492874
20
58.647989784670756
30
0
10
202.5649102437616
20
57.699331715325293
30
0
10
201.38167553337308
20
57.801775287681501
30
0
10
199.75151153172237
20
59.006737746578224
30
0
10
198.07914177729586
20
60.858084142950673
30
0
10
196.61904771753979
20
62.738933923689011
30
0
10
195.55482043696188
20
64.21010119559638
30
0
10
195
20
65
30
0
0
SPLINE
5
111
100
AcDbEntity
8
0
100
AcDbSpline
70
4
71
5
72
31
73
25
74
0
42
0.000000001
43
0.0000000001
44
0.0000000001
40
0
40
0
40
0
40
0
40
0
40
0
40
0.050000000000000003
40
0.10000000000000001
40
0.15000000000000002
40
0.20000000000000001
40
0.25
40
0.29999999999999999
40
0.34999999999999998
40
0.39999999999999997
40
0.44999999999999996
40
0.49999999999999994
40
0.54999999999999993
40
0.59999999999999998
40
0.65000000000000002
40
0.70000000000000007
40
0.75000000000000011
40
0.80000000000000016
40
0.8500000000000002
40
0.90000000000000024
40
0.95000000000000029
40
1
40
1
40
1
40
1
40
1
40
1
41
1
41
1
41
1
41
1
41
1
41
1
41
1
41
1
41
1
41
1
41
1
41
1
41
1
41
1
41
1
41
1
41
1
41
1
41
1
41
1
41
1
41
1
41
1
41
1
41
1
10
195
20
65
30
0
10
194.88216442237103
20
64.353335906663688
30
0
10
194.61460006006658
20
63.083342621305704
30
0
10
194.11757590477168
20
61.248359119456417
30
0
10
193.26272368117776
20
58.942283674525378
30
0
10
191.86779344388162
20
56.296342776487734
30
0
10
190.13589406763111
20
53.887975988803547
30
0
10
188.05260701331008
20
51.714892055731092
30
0
10
185.59856816137176
20
49.767533786908103
30
0
10
182.75737622821958
20
48.033822408787998
30
0
10
179.52829716214225
20
46.508510329119616
30
0
10
175.93887370360122
20
45.201420963820041
30
0
10
172.0566701809683
20
44.145126305655999
30
0
10
168.00693490927677
20
43.405566347007735
30
0
10
163.95789123444388
20
43.07382397560896
30
0
10
160.09765195012616
20
43.252798616890274
30
0
10
156.61355801894138
20
44.044872700907199
30
0
10
153.67236602045233
20
45.539961943019371
30
0
10
151.39478527831909
20
47.799482521949614
30
0
10
149.8481810071043
20
50.852198410533916
30
0
10
149.06492319091959
20
54.706922411659271
30
0
10
149.05547738683819
20
58.429342265840191
30
0
10
149.39392045477598
20
61.576895848355434
30
0
10
149.77248400651965
20
63.832722162960273
30
0
10
150
20
65
30
0
0
SPLINE
5
112
100
AcDbEntity
8
0
100
AcDbSpline
70
4
71
5
72
41
73
35
74
0
42
0.000000001
43
0.0000000001
44
0.0000000001
40
0
40
0
40
0
40
0
40
0
40
0
40
0.033333333333333333
40
0.066666666666666666
40
0.10000000000000001
40
0.13333333333333333
40
0.16666666666666666
40
0.19999999999999998
40
0.23333333333333331
40
0.26666666666666666
40
0.29999999999999999
40
0.33333333333333331
40
0.36666666666666664
40
0.39999999999999997
40
0.43333333333333329
40
0.46666666666666662
40
0.49999999999999994
40
0.53333333333333333
40
0.56666666666666665
40
0.59999999999999998
40
0.6333333333333333
40
0.66666666666666663
40
0.69999999999999996
40
0.73333333333333328
40
0.76666666666666661
40
0.79999999999999993
40
0.83333333333333326
40
0.86666666666666659
40
0.89999999999999991
40
0.93333333333333324
40
0.96666666666666656
40
1
40
1
40
1
40
1
40
1
40
1
41
1
41
1
41
1
41
1
41
1
41
1
41
1
41
1
41
1
41
1
41
1
41
1
41
1
41
1
41
1
41
1
41
1
41
1
41
1
41
1
41
1
41
1
41
1
41
1
41
1
41
1
41
1
41
1
41
1
41
1
41
1
41
1
41
1
41
1
41
1
10
150
20
65
30
0
10
149.55629075509731
20
64.966584869663578
30
0
10
148.67213419977745
20
64.846585831843782
30
0
10
147.35568381419063
20
64.507084237496755
30
0
10
145.6200327566886
20
63.734803026584842
30
0
10
143.48147379261658
20
62.242642668972358
30
0
10
141.36870370328361
20
60.246686568355784
30
0
10
139.27058589251939
20
57.798546487723648
30
0
10
137.16943274945842
20
54.985885813015244
30
0
10
135.05151532411392
20
51.915487132437612
30
0
10
132.91562118461209
20
48.699839248486015
30
0
10
130.78376319881303
20
45.441615798958352
30
0
10
128.70810786564897
20
42.221070632508145
30
0
10
126.78732000496109
20
39.076984359283124
30
0
10
125.14375897053785
20
36.013994273286201
30
0
10
123.87940419148777
20
33.02479431796182
30
0
10
123.03468854153037
20
30.108897283572151
30
0
10
122.55328423855894
20
27.290116519165807
30
0
10
122.22489290950078
20
24.641346383778007
30
0
10
121.7106222271324
20
22.280268577421616
30
0
10
120.66029280249707
20
20.332850596215522
30
0
10
118.79603860316632
20
18.908107698814838
30
0
10
116.03093374817368
20
18.062103020941723
30
0
10
112.45402558878442
20
17.800767889344623
30
0
10
108.2678600463327
20
18.096304839974731
30
0
10
103.74169344801609
20
18.899003229179932
30
0
10
99.160397733863434
20
20.150313086578517
30
0
10
94.772072569667273
20
21.795956457711284
30
0
10
90.746507979737459
20
23.796547328522855
30
0
10
87.194720205845059
20
26.124185362576572
30
0
10
84.179943032802498
20
28.760931247865752
30
0
10
82.221168053942293
20
31.109429277545765
30
0
10
81.01033332260171
20
33.00328695510774
30
0
10
80.317682522109436
20
34.32463320351188
30
0
10
80
20
35
30
0
0
SPLINE
5
113
100
AcDbEntity
8
0
100
AcDbSpline
70
4
71
5
72
36
73
30
74
0
42
0.000000001
43
0.0000000001
44
0.0000000001
40
0
40
0
40
0
40
0
40
0
40
0
40
0.040000000000000001
40
0.080000000000000002
40
0.12
40
0.16
40
0.20000000000000001
40
0.24000000000000002
40
0.28000000000000003
40
0.32000000000000001
40
0.35999999999999999
40
0.39999999999999997
40
0.43999999999999995
40
0.47999999999999993
40
0.51999999999999991
40
0.55999999999999994
40
0.59999999999999998
40
0.64000000000000001
40
0.68000000000000005
40
0.72000000000000008
40
0.76000000000000012
40
0.80000000000000016
40
0.84000000000000019
40
0.88000000000000023
40
0.92000000000000026
40
0.9600000000000003
40
1
40
1
40
1
40
1
40
1
40
1
41
1
41
1
41
1
41
1
41
1
41
1
41
1
41
1
41
1
41
1
41
1
41
1
41
1
41
1
41
1
41
1
41
1
41
1
41
1
41
1
41
1
41
1
41
1
41
1
41
1
41
1
41
1
41
1
41
1
41
1
10
265.67923151624319
20
143.22935940596278
30
0
10
265.64905278676622
20
142.84661750349417
30
0
10
265.56753835090444
20
142.03267771210722
30
0
10
265.38179377062204
20
140.66639752097439
30
0
10
265.00687446929288
20
138.55321300768662
30
0
10
264.33005866933979
20
135.42891783053341
30
0
10
263.46062614717795
20
131.8389679519135
30
0
10
262.43183526420916
20
127.82306898641022
30
0
10
261.30329331564769
20
123.45521925082593
30
0
10
260.15437772736055
20
118.83571328188508
30
0
10
259.07379889403313
20
114.07816595472545
30
0
10
258.15079553376
20
109.29881061035195
30
0
10
257.46525875802672
20
104.60433541634274
30
0
10
257.07911901712328
20
100.0818168285048
30
0
10
257.02465173612603
20
95.783874104928529
30
0
10
257.30148103885693
20
91.728077343740324
30
0
10
257.88914773524908
20
87.921804209925341
30
0
10
258.75584238802901
20
84.38110277819348
30
0
10
259.8684120567537
20
81.15203263686243
30
0
10
261.20158106483098
20
78.330750788430819
30
0
10
262.74760516773438
20
76.085325301375107
30
0
10
264.50997359177097
20
74.616601748215231
30
0
10
266.49756843264271
20
74.122313809568084
30
0
10
268.71763151374375
20
74.752618635971615
30
0
10
271.17267626390463
20
76.593656513082053
30
0
10
273.86280147550451
20
79.689523136784004
30
0
10
276.20179941786097
20
83.180964672384832
30
0
10
278.06041827353465
20
86.369442585436929
30
0
10
279.34576195199503
20
88.747710993684848
30
0
10
280
20
90
30
0
0
LINE
5
114
100
AcDbEntity
8
0
100
AcDbLine
10
80
20
50
30
0
11
80
21
35
31
0
0
ENDSEC
0
SECTION
2
OBJECTS
0
DICTIONARY
5
C
100
AcDbDictionary
3
ACAD_GROUP
350
D
3
ACAD_MLINESTYLE
350
17
0
DICTIONARY
5
D
100
AcDbDictionary
0
DICTIONARY
5
1A
330
C
100
AcDbDictionary
0
DICTIONARY
5
17
100
AcDbDictionary
0
ENDSEC
0
EOF
