0
SECTION
2
HEADER
9
$INSUNITS
70
4
9
$ACADVER
1
AC1014
9
$HANDSEED
5
FFFF
0
ENDSEC
0
SECTION
2
TABLES
0
TABLE
2
VPORT
5
8
100
AcDbSymbolTable
0
ENDTAB
0
TABLE
2
LTYPE
5
5
100
AcDbSymbolTable
0
LTYPE
5
14
100
AcDbSymbolTableRecord
100
AcDbLinetypeTableRecord
2
BYBLOCK
70
0
0
LTYPE
5
15
100
AcDbSymbolTableRecord
100
AcDbLinetypeTableRecord
2
BYLAYER
70
0
0
ENDTAB
0
TABLE
2
LAYER
5
2
100
AcDbSymbolTable
70
2
0
LAYER
5
50
100
AcDbSymbolTableRecord
100
AcDbLayerTableRecord
2
0
70
0
6
CONTINUOUS
0
ENDTAB
0
TABLE
2
STYLE
5
3
100
AcDbSymbolTable
70
1
0
STYLE
5
11
100
AcDbSymbolTableRecord
100
AcDbTextStyleTableRecord
2
STANDARD
70
0
0
ENDTAB
0
TABLE
2
VIEW
5
6
100
AcDbSymbolTable
70
0
0
ENDTAB
0
TABLE
2
UCS
5
7
100
AcDbSymbolTable
70
0
0
ENDTAB
0
TABLE
2
APPID
5
9
100
AcDbSymbolTable
70
2
0
APPID
5
12
100
AcDbSymbolTableRecord
100
AcDbRegAppTableRecord
2
ACAD
70
0
0
ENDTAB
0
TABLE
2
DIMSTYLE
5
A
100
AcDbSymbolTable
70
1
0
ENDTAB
0
TABLE
2
BLOCK_RECORD
5
1
100
AcDbSymbolTable
70
1
0
BLOCK_RECORD
5
1F
100
AcDbSymbolTableRecord
100
AcDbBlockTableRecord
2
*MODEL_SPACE
0
BLOCK_RECORD
5
1B
100
AcDbSymbolTableRecord
100
AcDbBlockTableRecord
2
*PAPER_SPACE
0
ENDTAB
0
ENDSEC
0
SECTION
2
BLOCKS
0
BLOCK
5
20
100
AcDbEntity
100
AcDbBlockBegin
2
*MODEL_SPACE
0
ENDBLK
5
21
100
AcDbEntity
100
AcDbBlockEnd
0
BLOCK
5
1C
100
AcDbEntity
100
AcDbBlockBegin
2
*PAPER_SPACE
0
ENDBLK
5
1D
100
AcDbEntity
100
AcDbBlockEnd
0
ENDSEC
0
SECTION
2
ENTITIES
0
LINE
5
100
100
AcDbEntity
8
0
100
AcDbLine
10
210
20
-10
30
0
11
80
21
-10
31
0
0
CIRCLE
5
101
100
AcDbEntity
8
0
100
AcDbCircle
10
136.00000202655792
20
8.0000001192092896
30
0
40
2.0499999999999918
210
0
220
0
230
1
0
SPLINE
5
102
100
AcDbEntity
8
0
100
AcDbSpline
70
4
71
5
72
21
73
15
74
0
42
0.000000001
43
0.0000000001
44
0.0000000001
40
0
40
0
40
0
40
0
40
0
40
0
40
0.10000000000000001
40
0.20000000000000001
40
0.30000000000000004
40
0.40000000000000002
40
0.5
40
0.59999999999999998
40
0.69999999999999996
40
0.79999999999999993
40
0.89999999999999991
40
1
40
1
40
1
40
1
40
1
40
1
41
1
41
1
41
1
41
1
41
1
41
1
41
1
41
1
41
1
41
1
41
1
41
1
41
1
41
1
41
1
10
210
20
50
30
0
10
209.78323329122335
20
48.878714975409309
30
0
10
209.34705861427287
20
46.734286238275409
30
0
10
208.68487303351407
20
43.812059159558309
30
0
10
207.78584924026325
20
40.514344198027089
30
0
10
206.63340296566471
20
37.45736326073569
30
0
10
205.4497484078976
20
35.559988932091578
30
0
10
204.23237021472983
20
34.915684189002
30
0
10
202.97995287621521
20
35.573329452098129
30
0
10
201.69395191932139
20
37.47884168536671
30
0
10
200.37693007696333
20
40.53699738618981
30
0
10
199.30054635396687
20
43.829447777638755
30
0
10
198.48126857943043
20
46.744297507651609
30
0
10
197.92984153132909
20
48.882302713564478
30
0
10
197.65281749605575
20
50
30
0
0
SPLINE
5
103
100
AcDbEntity
8
0
100
AcDbSpline
70
4
71
5
72
26
73
20
74
0
42
0.000000001
43
0.0000000001
44
0.0000000001
40
0
40
0
40
0
40
0
40
0
40
0
40
0.066666666666666666
40
0.13333333333333333
40
0.20000000000000001
40
0.26666666666666666
40
0.33333333333333331
40
0.39999999999999997
40
0.46666666666666662
40
0.53333333333333333
40
0.59999999999999998
40
0.66666666666666663
40
0.73333333333333328
40
0.79999999999999993
40
0.86666666666666659
40
0.93333333333333324
40
1
40
1
40
1
40
1
40
1
40
1
41
1
41
1
41
1
41
1
41
1
41
1
41
1
41
1
41
1
41
1
41
1
41
1
41
1
41
1
41
1
41
1
41
1
41
1
41
1
41
1
10
197.65281749605575
20
50
30
0
10
197.73548715941033
20
48.74529593602368
30
0
10
197.80622759746393
20
46.298124326917893
30
0
10
197.6285390110346
20
42.814075485174961
30
0
10
196.81991804926668
20
38.544816713975194
30
0
10
194.84412404344903
20
33.856225310466556
30
0
10
191.91115162837835
20
29.850379754627184
30
0
10
188.0716196061482
20
26.573878982008146
30
0
10
183.44951814891201
20
24.081712654349275
30
0
10
178.26369331258923
20
22.432684710016421
30
0
10
172.7823204891385
20
21.686417452717262
30
0
10
167.28750338547374
20
21.897444683095323
30
0
10
162.0397395090763
20
23.108164437193757
30
0
10
157.23820145471512
20
25.336597945512274
30
0
10
152.99370527137194
20
28.568540289052457
30
0
10
149.35934892477292
20
32.775694919038045
30
0
10
146.95133523740449
20
36.896443246768385
30
0
10
145.42421994792821
20
40.400749681198256
30
0
10
144.52918842144243
20
42.919504161848387
30
0
10
144.11243475827052
20
44.224519504662887
30
0
0
SPLINE
5
104
100
AcDbEntity
8
0
100
AcDbSpline
70
4
71
5
72
31
73
25
74
0
42
0.000000001
43
0.0000000001
44
0.0000000001
40
0
40
0
40
0
40
0
40
0
40
0
40
0.050000000000000003
40
0.10000000000000001
40
0.15000000000000002
40
0.20000000000000001
40
0.25
40
0.29999999999999999
40
0.34999999999999998
40
0.39999999999999997
40
0.44999999999999996
40
0.49999999999999994
40
0.54999999999999993
40
0.59999999999999998
40
0.65000000000000002
40
0.70000000000000007
40
0.75000000000000011
40
0.80000000000000016
40
0.8500000000000002
40
0.90000000000000024
40
0.95000000000000029
40
1
40
1
40
1
40
1
40
1
40
1
41
1
41
1
41
1
41
1
41
1
41
1
41
1
41
1
41
1
41
1
41
1
41
1
41
1
41
1
41
1
41
1
41
1
41
1
41
1
41
1
41
1
41
1
41
1
41
1
41
1
10
144.11243475827052
20
44.224519504662887
30
0
10
143.7716470623005
20
43.330178190648496
30
0
10
143.10536371194667
20
41.54403501563111
30
0
10
142.15181795210066
20
38.872437970084732
30
0
10
140.97252972110564
20
35.325611555878659
30
0
10
139.64313409957978
20
30.922581254704209
30
0
10
138.42755746822701
20
26.564564360057751
30
0
10
137.26149627833794
20
22.280067033935413
30
0
10
136.03202193041577
20
18.116870820010476
30
0
10
134.57140114989997
20
14.145597095325757
30
0
10
132.69881548708247
20
10.45349182760928
30
0
10
130.25778579617716
20
7.1394785412499164
30
0
10
127.15226149475305
20
4.3087222302099084
30
0
10
123.39394635784583
20
2.0669988411213893
30
0
10
119.08151226549381
20
0.51563773027406501
30
0
10
114.36143748605362
20
-0.25389071503941529
30
0
10
109.39728893373658
20
-0.16581477920553336
30
0
10
104.33484472391854
20
0.83253985630127258
30
0
10
99.273771364968553
20
2.7646488091920425
30
0
10
94.278849826139535
20
5.634693396159415
30
0
10
89.387027459467646
20
9.4348265325253848
30
0
10
85.569816052282661
20
13.208727554207794
30
0
10
82.763130984165855
20
16.446568864682064
30
0
10
80.916895703276808
20
18.785466756689441
30
0
10
80
20
20
30
0
0
LINE
5
105
100
AcDbEntity
8
0
100
AcDbLine
10
80
20
-10
30
0
11
80
21
20
31
0
0
LINE
5
106
100
AcDbEntity
8
0
100
AcDbLine
10
210
20
-10
30
0
11
210
21
50
31
0
0
ENDSEC
0
SECTION
2
OBJECTS
0
DICTIONARY
5
C
100
AcDbDictionary
3
ACAD_GROUP
350
D
3
ACAD_MLINESTYLE
350
17
0
DICTIONARY
5
D
100
AcDbDictionary
0
DICTIONARY
5
1A
330
C
100
AcDbDictionary
0
DICTIONARY
5
17
100
AcDbDictionary
0
ENDSEC
0
EOF
